<?xml version="1.0" encoding="UTF-8" standalone="no"?>
<!DOCTYPE svg PUBLIC "-//W3C//DTD SVG 1.1//EN" "http://www.w3.org/Graphics/SVG/1.1/DTD/svg11.dtd">
<svg width="100%" height="100%" viewBox="0 0 1789 447" version="1.1" xmlns="http://www.w3.org/2000/svg" xmlns:xlink="http://www.w3.org/1999/xlink" xml:space="preserve" xmlns:serif="http://www.serif.com/" style="fill-rule:evenodd;clip-rule:evenodd;stroke-linecap:round;stroke-linejoin:round;stroke-miterlimit:1.5;">
    <g transform="matrix(1,0,0,1,-892,-2098.87)">
        <g id="アートボード3" transform="matrix(1.11232,0,0,0.699102,-100.884,699.29)">
            <rect x="892.624" y="2001.96" width="1607.75" height="638.46" style="fill:none;"/>
            <g transform="matrix(0.852478,0,0,1.35635,102.044,-830.537)">
                <g transform="matrix(1,0,0,1,454.579,1407.78)">
                    <path d="M733.583,1032.26C744.027,1035.89 767.854,1040.19 792.289,1045.14C839.243,1054.66 863.42,1040.13 863.42,1040.13C863.42,1040.13 865.387,1025.49 842.173,1023.2C818.959,1020.92 817.582,1016.12 837.853,1007.4C858.123,998.676 908.427,982.862 924.615,1013.98C940.803,1045.09 921.741,1082.95 883.005,1094.08C802.535,1117.2 707.444,1090.28 707.444,1090.28C707.444,1090.28 720.065,1027.56 733.583,1032.26Z" style="fill:rgb(202,247,223);stroke:black;stroke-width:4.12px;"/>
                </g>
                <g transform="matrix(1,0,0,1,454.579,1407.78)">
                    <path d="M648.711,900.73C663.52,911.117 686.632,961.696 692.664,985.553C699.909,1014.21 690.333,1029.33 690.333,1029.33C690.333,1029.33 642.78,1022.5 622.165,1020.3C605.827,1018.56 576.064,1027.72 574.149,1058.46C572.124,1090.97 604.158,1106.77 657.934,1107.43C793.619,1109.11 775.479,1022.5 768.568,985.55C764.617,964.432 741.605,888.357 721.575,873.031C710.763,864.758 637.433,892.821 648.711,900.73Z" style="fill:rgb(202,247,223);stroke:black;stroke-width:4.12px;"/>
                </g>
                <g transform="matrix(0.577941,0,0,0.697089,741.914,1720.4)">
                    <path d="M697.162,1028.59C687.071,1042.82 675.12,1054.92 650.573,1056.19" style="fill:none;stroke:black;stroke-width:6.44px;"/>
                </g>
                <g transform="matrix(1,0,0,1,454.579,1407.78)">
                    <path d="M862.976,1040.25C878.105,1032.61 881.154,1027.69 875.894,1024.02" style="fill:none;stroke:black;stroke-width:4.12px;"/>
                </g>
                <g transform="matrix(1,0,0,1,454.579,1407.78)">
                    <path d="M512.494,934.409C505.379,922.046 513.826,882.639 554.082,871.384C585.494,862.601 772.186,809.743 772.186,809.743C772.186,809.743 822.822,734.712 838.841,734.289C864.844,733.602 931.786,762.2 933.78,782.714C933.877,783.716 847.438,791.114 846.767,792.326C833.949,815.483 843.259,840.879 855.404,857.957C856.313,859.235 929.14,848.992 929.235,850.104C930.873,869.277 871.502,904.533 855.434,904.574C841.157,904.61 783.33,868.937 783.33,868.937C783.33,868.937 604.677,957.92 576.653,965.274C545.115,973.55 524.93,956.017 512.494,934.409Z" style="fill:rgb(159,159,159);stroke:black;stroke-width:4.12px;"/>
                </g>
                <g transform="matrix(1,0,0,1,454.579,1407.78)">
                    <path d="M723.262,851.337C751.281,838.176 750.487,817.042 745.37,794.644C738.228,763.383 711.945,739.538 684.809,742.666C657.611,745.801 611.89,764.909 610.809,800.174C610.047,825.016 627.575,850.209 627.575,850.209C627.575,850.209 645.864,843.627 657.693,847.121C669.521,850.615 695.242,864.498 723.262,851.337Z" style="fill:rgb(202,247,223);stroke:black;stroke-width:4.12px;"/>
                </g>
                <g transform="matrix(0.713621,0.561618,-0.802385,1.01955,1299.34,1028.7)">
                    <ellipse cx="660.149" cy="813.725" rx="16.216" ry="7.527"/>
                </g>
                <g transform="matrix(0.275484,0.81069,-1.04833,0.356237,1852.19,1376.91)">
                    <ellipse cx="660.149" cy="813.725" rx="16.216" ry="7.527"/>
                </g>
            </g>
            <g transform="matrix(0.971051,0,0,1.54501,-22.3979,-1230.15)">
                <g transform="matrix(0.86337,0,0,1.0125,584.114,1350.45)">
                    <path d="M936.507,924.13C934.098,924.87 932.785,927.084 933.513,929.177C941.16,951.147 980.316,1063.65 989.6,1090.32C990.771,1093.68 994.409,1095.98 998.522,1095.95C1001.72,1095.93 1005.41,1095.91 1008.19,1095.89C1010.79,1095.87 1013.11,1094.48 1014,1092.4C1019.95,1078.5 1042.22,1026.49 1051.57,1004.66C1052.18,1003.23 1053.8,1002.28 1055.58,1002.31C1057.37,1002.34 1058.94,1003.33 1059.5,1004.78C1067.41,1025.55 1085.61,1073.28 1092.12,1090.36C1093.54,1094.07 1097.58,1096.59 1102.16,1096.61C1103.43,1096.62 1104.76,1096.62 1106.05,1096.63C1111.07,1096.66 1115.47,1093.81 1116.81,1089.69C1126.18,1060.66 1161.93,950.003 1169.28,927.258C1169.63,926.175 1169.45,925.017 1168.8,924.043C1168.14,923.069 1167.05,922.36 1165.78,922.073C1162.09,921.246 1157.17,920.142 1154.31,919.498C1153.01,919.206 1151.68,919.867 1151.33,920.974C1146.66,935.992 1117.06,1031.26 1106.78,1064.35C1106.33,1065.8 1104.8,1066.82 1103.04,1066.85C1101.28,1066.88 1099.71,1065.92 1099.18,1064.49C1091.03,1042.19 1073.11,993.172 1068.45,980.441C1067.78,978.614 1065.8,977.368 1063.56,977.362C1059.22,977.351 1052.16,977.333 1048.02,977.322C1046.03,977.317 1044.25,978.366 1043.55,979.953C1038.23,991.965 1016.16,1041.83 1006.31,1064.08C1005.64,1065.59 1003.91,1066.55 1002.03,1066.47C1000.14,1066.39 998.537,1065.28 998.051,1063.72C988.275,1032.39 960.854,944.485 954.335,923.587C953.974,922.43 953.061,921.456 951.818,920.9C950.574,920.345 949.115,920.259 947.794,920.665C944.321,921.731 939.788,923.123 936.507,924.13Z" style="fill:rgb(104,104,104);stroke:black;stroke-width:3.84px;"/>
                </g>
                <g transform="matrix(1.0266,0,0,1.11675,407.021,1229.6)">
                    <path d="M1172.55,1031.47C1176.18,1001.64 1193.62,977.299 1218.46,975.976C1242.12,974.716 1267.01,992.843 1267.73,1026.24C1268.3,1052.68 1251.37,1088.92 1222.44,1089.2C1193.16,1089.48 1169.41,1057.3 1172.55,1031.47ZM1283.45,948.311C1281.65,947.768 1279.7,948.652 1279.08,950.299C1276.93,955.973 1272.26,968.277 1270.25,973.601C1270.02,974.207 1269.49,974.681 1268.83,974.886C1268.17,975.091 1267.44,975.003 1266.86,974.649C1259.49,970.29 1236.43,958.137 1214.37,961.84C1186.85,966.459 1160.62,993.881 1157.34,1029.38C1153.78,1067.94 1177.95,1102.13 1220.09,1102.12C1248.51,1102.11 1267.15,1086.78 1273.75,1080.32C1274.33,1079.73 1275.19,1079.46 1276.04,1079.6C1276.89,1079.74 1277.6,1080.28 1277.92,1081.01C1280.26,1086.39 1284.7,1096.64 1287.17,1102.35C1287.61,1103.36 1288.51,1104.14 1289.63,1104.47C1290.76,1104.8 1291.98,1104.65 1292.98,1104.07C1297.67,1101.3 1305.27,1096.83 1309.02,1094.62C1309.59,1094.29 1309.97,1093.74 1310.06,1093.12C1310.15,1092.5 1309.95,1091.88 1309.5,1091.41C1304.29,1085.56 1289.28,1066.39 1287.36,1038.73C1285.05,1005.48 1296.77,970.245 1301.19,958.342C1301.62,957.243 1301.55,956.029 1300.99,954.979C1300.43,953.929 1299.43,953.131 1298.23,952.767C1293.84,951.437 1287.33,949.477 1283.45,948.311Z" style="fill:rgb(104,104,104);stroke:black;stroke-width:3.37px;"/>
                </g>
                <g transform="matrix(1.0266,0,0,1.11675,430.026,1226.85)">
                    <path d="M1319.37,946.74C1318.52,946.74 1317.71,947.052 1317.11,947.606C1316.51,948.161 1316.18,948.911 1316.18,949.692C1316.33,969.592 1317.17,1083.97 1317.31,1102.31C1317.32,1103.69 1318.53,1104.8 1320.02,1104.81C1324.16,1104.83 1332.02,1104.87 1336.08,1104.9C1336.77,1104.9 1337.42,1104.65 1337.9,1104.21C1338.38,1103.77 1338.66,1103.17 1338.66,1102.54C1338.64,1087.91 1338.63,1009.92 1339.62,994.973C1340.79,977.301 1364.18,965.535 1384.4,965.47C1408.5,965.393 1419.63,977.606 1420.25,992.484C1420.77,1005.02 1421.4,1084.85 1421.53,1101.38C1421.54,1103.05 1423,1104.4 1424.81,1104.42C1428.91,1104.47 1435.87,1104.56 1439.73,1104.61C1440.47,1104.61 1441.18,1104.35 1441.71,1103.88C1442.24,1103.4 1442.55,1102.75 1442.55,1102.07C1442.72,1087.34 1443.48,1013.22 1442.25,985.827C1440.88,955.057 1393.92,951.486 1377.12,953.207C1359.16,955.047 1348.93,961.278 1344.34,964.934C1343.98,965.286 1343.41,965.372 1342.95,965.143C1342.48,964.915 1342.25,964.429 1342.37,963.96C1343.38,960.006 1345,953.821 1345.99,950.035C1346.2,949.237 1346,948.394 1345.45,947.749C1344.9,947.104 1344.05,946.728 1343.16,946.728C1337.09,946.731 1325.11,946.737 1319.37,946.74Z" style="fill:rgb(104,104,104);stroke:black;stroke-width:3.37px;"/>
                </g>
                <g transform="matrix(1,0,0,0.878083,504.238,1498.4)">
                    <path d="M1339.42,761.133C1338.16,761.139 1337.14,762.305 1337.14,763.744C1337.13,767.295 1337.12,773.611 1337.11,777.066C1337.11,777.706 1337.33,778.32 1337.73,778.771C1338.13,779.223 1338.67,779.474 1339.23,779.47C1351.89,779.374 1417.57,778.878 1441.79,778.695C1444.17,778.677 1446.45,779.739 1448.14,781.645C1449.83,783.551 1450.78,786.145 1450.79,788.853C1450.87,839.175 1451.26,1059.44 1451.31,1093C1451.32,1094.13 1451.71,1095.22 1452.42,1096.02C1453.13,1096.83 1454.09,1097.27 1455.09,1097.27C1458.45,1097.25 1463.36,1097.22 1466.87,1097.2C1469.25,1097.19 1471.17,1094.99 1471.16,1092.28C1471.05,1056.13 1470.32,831.166 1470.17,786.538C1470.16,782.29 1473.17,778.832 1476.9,778.813C1497.24,778.709 1557.39,778.4 1571.09,778.33C1572.64,778.322 1573.9,776.892 1573.91,775.125C1573.93,771.149 1573.97,764.52 1573.98,761.568C1573.98,761.173 1573.85,760.793 1573.6,760.513C1573.36,760.233 1573.02,760.077 1572.67,760.078C1554.91,760.159 1362.61,761.028 1339.42,761.133Z" style="fill:rgb(104,104,104);stroke:black;stroke-width:3.84px;"/>
                </g>
                <g transform="matrix(1.20439,0,0,1.03853,209.592,1318.46)">
                    <path d="M1497,1012.96C1496.82,1067.79 1518.1,1101.9 1561.65,1101.01C1600.88,1100.21 1619.09,1070.16 1619.46,1013.67C1619.85,953.082 1588.05,930.469 1559.1,930.484C1533.95,930.498 1497.2,951.639 1497,1012.96ZM1513.07,1012.46C1513.48,1050.7 1526.03,1087.58 1558.87,1086.7C1592.37,1085.8 1603,1053.99 1603.72,1016.72C1604.38,982.346 1589.57,946.158 1558.45,947.684C1527.4,949.208 1512.75,982.471 1513.07,1012.46Z" style="fill:rgb(104,104,104);stroke:black;stroke-width:3.22px;"/>
                </g>
                <g transform="matrix(1.24588,0,0,1.03254,303.035,1323.73)">
                    <path d="M1499.58,1013.22C1499.7,1070.46 1523.89,1101.86 1561.65,1101.01C1599.78,1100.15 1619.79,1070.8 1619.46,1014.32C1619.09,950.756 1589.85,928.832 1560.9,928.847C1535.74,928.86 1499.45,951.901 1499.58,1013.22ZM1514.46,1015.45C1514.29,1047.28 1528.3,1087.07 1560.39,1086.33C1592.14,1085.59 1603.48,1053.46 1603.75,1017C1604.03,979.324 1592.97,944.341 1561,944.408C1529.55,944.474 1514.68,978.149 1514.46,1015.45Z" style="fill:rgb(104,104,104);stroke:black;stroke-width:3.16px;"/>
                </g>
                <g transform="matrix(1,0,0,0.941312,591.67,1424.52)">
                    <path d="M1764.63,774.567C1763.53,774.594 1762.65,775.549 1762.65,776.719C1762.62,800.545 1762.3,1019.98 1762.21,1083.77C1762.2,1088.36 1763.91,1092.76 1766.97,1096C1770.02,1099.25 1774.16,1101.07 1778.48,1101.06C1820.62,1101.01 1931.21,1100.88 1950.31,1100.86C1951.06,1100.86 1951.78,1100.54 1952.3,1099.97C1952.83,1099.41 1953.12,1098.64 1953.11,1097.85C1953.07,1094.74 1953.01,1089.92 1952.97,1086.78C1952.94,1085.06 1951.63,1083.68 1950.01,1083.67C1931.15,1083.66 1826.26,1083.56 1792.46,1083.53C1786.65,1083.52 1781.94,1078.54 1781.92,1072.37C1781.71,1020.39 1780.84,803.295 1780.74,776.82C1780.73,776.122 1780.47,775.455 1780,774.968C1779.52,774.481 1778.89,774.216 1778.23,774.233C1774.61,774.322 1767.95,774.486 1764.63,774.567Z" style="fill:rgb(104,104,104);stroke:black;stroke-width:3.72px;"/>
                </g>
                <g transform="matrix(1.13557,0,0,1.22299,350.894,1118.94)">
                    <path d="M1924.35,933.826C1904.32,918.914 1824.14,904.014 1819.19,954.06C1814.17,1004.84 1920.71,1022.72 1910.59,1048.12C1900.13,1074.37 1853.09,1057 1833.32,1030.88C1818.2,1010.92 1800.41,1031.55 1807.3,1044.1C1814.19,1056.64 1886.36,1095.5 1923.62,1061.79C1938.4,1048.43 1936.01,1035.44 1912.22,1017.22C1898.22,1006.5 1835.5,984.511 1836.21,957.532C1836.79,935.327 1865.93,927.485 1893.86,944.101C1920.95,960.212 1935.04,941.776 1924.35,933.826Z" style="fill:rgb(104,104,104);stroke:black;stroke-width:3.07px;"/>
                </g>
            </g>
        </g>
    </g>
</svg>
