<?xml version="1.0" encoding="UTF-8" standalone="no"?>
<!DOCTYPE svg PUBLIC "-//W3C//DTD SVG 1.1//EN" "http://www.w3.org/Graphics/SVG/1.1/DTD/svg11.dtd">
<svg width="100%" height="100%" viewBox="0 0 2061 447" version="1.1" xmlns="http://www.w3.org/2000/svg" xmlns:xlink="http://www.w3.org/1999/xlink" xml:space="preserve" xmlns:serif="http://www.serif.com/" style="fill-rule:evenodd;clip-rule:evenodd;stroke-linecap:round;stroke-linejoin:round;stroke-miterlimit:1.5;">
    <g transform="matrix(1,0,0,1,-882.263,-1930.74)">
        <g id="アートボード3" transform="matrix(1.28179,0,0,0.699102,-261.896,531.163)">
            <rect x="892.624" y="2001.96" width="1607.75" height="638.46" style="fill:none;"/>
            <g transform="matrix(0.739767,0,0,1.35635,197.943,-833.067)">
                <g transform="matrix(1,0,0,1,454.579,1407.78)">
                    <path d="M733.583,1032.26C744.027,1035.89 767.854,1040.19 792.289,1045.14C839.243,1054.66 863.42,1040.13 863.42,1040.13C863.42,1040.13 865.387,1025.49 842.173,1023.2C818.959,1020.92 817.582,1016.12 837.853,1007.4C858.123,998.676 908.427,982.862 924.615,1013.98C940.803,1045.09 921.741,1082.95 883.005,1094.08C802.535,1117.2 707.444,1090.28 707.444,1090.28C707.444,1090.28 720.065,1027.56 733.583,1032.26Z" style="fill:rgb(202,247,223);stroke:black;stroke-width:4.12px;"/>
                </g>
                <g transform="matrix(1,0,0,1,454.579,1407.78)">
                    <path d="M648.711,900.73C663.52,911.117 686.632,961.696 692.664,985.553C699.909,1014.21 690.333,1029.33 690.333,1029.33C690.333,1029.33 642.78,1022.5 622.165,1020.3C605.827,1018.56 576.064,1027.72 574.149,1058.46C572.124,1090.97 604.158,1106.77 657.934,1107.43C793.619,1109.11 775.479,1022.5 768.568,985.55C764.617,964.432 741.605,888.357 721.575,873.031C710.763,864.758 637.433,892.821 648.711,900.73Z" style="fill:rgb(202,247,223);stroke:black;stroke-width:4.12px;"/>
                </g>
                <g transform="matrix(0.577941,0,0,0.697089,741.914,1720.4)">
                    <path d="M697.162,1028.59C687.071,1042.82 675.12,1054.92 650.573,1056.19" style="fill:none;stroke:black;stroke-width:6.44px;"/>
                </g>
                <g transform="matrix(1,0,0,1,454.579,1407.78)">
                    <path d="M862.976,1040.25C878.105,1032.61 881.154,1027.69 875.894,1024.02" style="fill:none;stroke:black;stroke-width:4.12px;"/>
                </g>
                <g transform="matrix(1,0,0,1,454.579,1407.78)">
                    <path d="M512.494,934.409C505.379,922.046 513.826,882.639 554.082,871.384C585.494,862.601 772.186,809.743 772.186,809.743C772.186,809.743 822.822,734.712 838.841,734.289C864.844,733.602 931.786,762.2 933.78,782.714C933.877,783.716 847.438,791.114 846.767,792.326C833.949,815.483 843.259,840.879 855.404,857.957C856.313,859.235 929.14,848.992 929.235,850.104C930.873,869.277 871.502,904.533 855.434,904.574C841.157,904.61 783.33,868.937 783.33,868.937C783.33,868.937 604.677,957.92 576.653,965.274C545.115,973.55 524.93,956.017 512.494,934.409Z" style="fill:rgb(159,159,159);stroke:black;stroke-width:4.12px;"/>
                </g>
                <g transform="matrix(1,0,0,1,454.579,1407.78)">
                    <path d="M723.262,851.337C751.281,838.176 750.487,817.042 745.37,794.644C738.228,763.383 711.945,739.538 684.809,742.666C657.611,745.801 611.89,764.909 610.809,800.174C610.047,825.016 627.575,850.209 627.575,850.209C627.575,850.209 645.864,843.627 657.693,847.121C669.521,850.615 695.242,864.498 723.262,851.337Z" style="fill:rgb(202,247,223);stroke:black;stroke-width:4.12px;"/>
                </g>
                <g transform="matrix(0.713621,0.561618,-0.802385,1.01955,1299.34,1028.7)">
                    <ellipse cx="660.149" cy="813.725" rx="16.216" ry="7.527"/>
                </g>
                <g transform="matrix(0.275484,0.81069,-1.04833,0.356237,1852.19,1376.91)">
                    <ellipse cx="660.149" cy="813.725" rx="16.216" ry="7.527"/>
                </g>
            </g>
            <g id="レイヤー3" transform="matrix(1.13558,0,0,2.08207,491.195,159.56)">
                <g transform="matrix(1,0,0,1,-337.208,28.7037)">
                    <path d="M2074.82,935.523C2074.82,935.523 1979.4,910.374 1973.57,955.785C1967.74,1001.2 2050.87,1015.69 2043.47,1039.97C2036.83,1061.79 1975.78,1040.41 1975.78,1040.41L1969.94,1068.99C1969.94,1068.99 2060.21,1092.15 2072.82,1048.86C2086.5,1001.89 1997.74,986.573 2003.62,962.58C2008.69,941.9 2065.14,964.528 2065.14,964.528L2074.82,935.523Z" style="fill:rgb(170,170,170);stroke:black;stroke-width:2.68px;"/>
                </g>
                <g transform="matrix(1,0,0,1,-276.48,78.014)">
                    <path d="M1844.57,1044.4C1840.52,1020.84 1838.66,867.771 1838.66,867.771L1874.69,867.448C1874.69,867.448 1867.85,1011.79 1870.21,1027.69C1872.5,1043.1 1882.63,1042.53 1898.69,1041.79C1912.9,1041.13 2011.48,1034.1 2011.48,1034.1L2004.65,1067.65C2004.65,1067.65 1898.96,1069.94 1877.32,1069.45C1864.07,1069.15 1847.34,1060.54 1844.57,1044.4Z" style="fill:rgb(170,170,170);stroke:black;stroke-width:2.68px;"/>
                </g>
                <g transform="matrix(1,0,0,0.96822,-291.022,112.71)">
                    <path d="M1695.93,1002.02C1696.01,1032.04 1714.73,1073.87 1766.08,1072.75C1823.02,1071.52 1830.41,1031.23 1830.92,999.824C1831.64,955.446 1812.31,926.687 1766.53,927.279C1708.21,928.033 1695.85,971.998 1695.93,1002.02ZM1724.19,1001.4C1724.5,1035.94 1746.32,1046.47 1766.2,1045.44C1791.07,1044.15 1803.45,1032.21 1803.63,1002.44C1803.82,972.368 1793.6,953.255 1765.85,953.151C1738.64,953.05 1723.9,970.174 1724.19,1001.4Z" style="fill:rgb(170,170,170);stroke:black;stroke-width:2.73px;"/>
                </g>
                <g transform="matrix(1,0,0,0.96822,-287.296,113.553)">
                    <path d="M1552.54,998.571C1552.67,1029.82 1558.53,1072.61 1620.06,1073.3C1678.51,1073.96 1684.42,1028.47 1684.45,1000.19C1684.48,974.675 1674.71,928.217 1623.59,927.633C1572.72,927.053 1552.36,957.593 1552.54,998.571ZM1581.24,997.294C1581.33,1013.53 1581.63,1046.04 1616.75,1047.78C1658.39,1049.85 1658.96,1020.76 1658.67,995.968C1658.39,972.789 1644.54,954.508 1621.49,954.811C1595.68,955.149 1581.14,976.64 1581.24,997.294Z" style="fill:rgb(170,170,170);stroke:black;stroke-width:2.73px;"/>
                </g>
                <g transform="matrix(1,0,0,1,-280.338,73.8029)">
                    <path d="M1419.02,874.495L1412.98,906.53L1484.34,907.356L1482.23,1072.14L1520.28,1071.95L1514.02,907.676L1579.54,908.734L1573.71,874.332L1419.02,874.495Z" style="fill:rgb(170,170,170);stroke:black;stroke-width:2.68px;"/>
                </g>
                <g transform="matrix(1,0,0,1,-251.425,74.2348)">
                    <path d="M1283.72,931.257L1289.82,1072.68L1321.7,1072.19L1318.6,983.443C1318.6,983.443 1336.61,954.02 1370.06,958.161C1397.86,961.603 1392.95,1071.26 1392.95,1071.26L1425.51,1070.64C1425.51,1070.64 1422.99,965.595 1405.11,946.24C1388.29,928.042 1364.97,930.041 1350.15,933.439C1336.96,936.463 1315.63,947.527 1315.63,947.527L1316.04,927.309L1283.72,931.257Z" style="fill:rgb(170,170,170);stroke:black;stroke-width:2.68px;"/>
                </g>
                <g transform="matrix(1,0,0,1,-257.406,74.18)">
                    <path d="M1205.68,934.48C1195.93,933.815 1163.71,936.585 1147.15,966.02C1130.58,995.454 1133.02,1029.33 1148,1053.11C1162.98,1076.88 1198.97,1073.65 1214.51,1067.79C1226.06,1063.44 1237.58,1056.06 1237.58,1056.06L1239.61,1071.51L1267.01,1070.37L1265.1,936.098L1235.65,932.688L1236.11,947.656C1236.11,947.656 1226.42,935.893 1205.68,934.48ZM1161.95,1003.97C1160.4,1027.78 1172.97,1044.34 1189.88,1045.4C1209.84,1046.65 1232.34,1035.05 1232.9,1004.48C1233.43,975.518 1218.53,960.633 1201.83,961.362C1179.69,962.329 1163.26,983.893 1161.95,1003.97Z" style="fill:rgb(170,170,170);stroke:black;stroke-width:2.68px;"/>
                </g>
                <g transform="matrix(1,0,0,1,-268.407,77.1783)">
                    <path d="M948.172,937.789C948.172,937.789 984.373,1042.76 990.237,1056.02C996.101,1069.27 999.421,1072.61 1008.37,1072.35C1019.72,1072.03 1039.89,1035.67 1043.41,1027.75C1046.94,1019.83 1052.62,1013.05 1057.06,1027.59C1061.49,1042.14 1076.44,1071.44 1090.42,1072.06C1100.74,1072.53 1109.29,1058.68 1113.54,1044.91C1117.78,1031.14 1149.41,928.889 1149.41,928.889L1107.73,923.307C1107.73,923.307 1098.43,1023.31 1088.59,1023.47C1081.02,1023.59 1067.8,980.193 1051.24,980.367C1034.68,980.54 1022.11,1021.27 1013.86,1021.24C1004.92,1021.21 988.861,925.298 988.861,925.298L948.172,937.789Z" style="fill:rgb(170,170,170);stroke:black;stroke-width:2.68px;"/>
                </g>
            </g>
        </g>
    </g>
</svg>
