<?xml version="1.0" encoding="UTF-8" standalone="no"?>
<!DOCTYPE svg PUBLIC "-//W3C//DTD SVG 1.1//EN" "http://www.w3.org/Graphics/SVG/1.1/DTD/svg11.dtd">
<svg width="100%" height="100%" viewBox="0 0 642 642" version="1.1" xmlns="http://www.w3.org/2000/svg" xmlns:xlink="http://www.w3.org/1999/xlink" xml:space="preserve" xmlns:serif="http://www.serif.com/" style="fill-rule:evenodd;clip-rule:evenodd;stroke-linecap:round;stroke-linejoin:round;stroke-miterlimit:1.5;">
    <g transform="matrix(1,0,0,1,-28.7555,-1981.48)">
        <g id="アートボード2" transform="matrix(1,0,0,1,-14.0483,12.9595)">
            <rect x="42.804" y="1968.52" width="641.858" height="641.858" style="fill:none;"/>
            <g id="レイヤー1" transform="matrix(1.3355,0,0,1.3355,-609.524,1070.42)">
                <path d="M733.583,1032.26C744.027,1035.89 767.854,1040.19 792.289,1045.14C839.243,1054.66 863.42,1040.13 863.42,1040.13C863.42,1040.13 865.387,1025.49 842.173,1023.2C818.959,1020.92 817.582,1016.12 837.853,1007.4C858.123,998.676 908.427,982.862 924.615,1013.98C940.803,1045.09 921.741,1082.95 883.005,1094.08C802.535,1117.2 707.444,1090.28 707.444,1090.28C707.444,1090.28 720.065,1027.56 733.583,1032.26Z" style="fill:rgb(202,247,223);stroke:black;stroke-width:2.93px;"/>
                <path d="M648.711,900.73C663.52,911.117 686.632,961.696 692.664,985.553C699.909,1014.21 690.333,1029.33 690.333,1029.33C690.333,1029.33 642.78,1022.5 622.165,1020.3C605.827,1018.56 576.064,1027.72 574.149,1058.46C572.124,1090.97 604.158,1106.77 657.934,1107.43C793.619,1109.11 775.479,1022.5 768.568,985.55C764.617,964.432 741.605,888.357 721.575,873.031C710.763,864.758 637.433,892.821 648.711,900.73Z" style="fill:rgb(202,247,223);stroke:black;stroke-width:2.93px;"/>
                <g transform="matrix(0.577941,0,0,0.697089,287.336,312.622)">
                    <path d="M697.162,1028.59C687.071,1042.82 675.12,1054.92 650.573,1056.19" style="fill:none;stroke:black;stroke-width:4.57px;"/>
                </g>
                <path d="M862.976,1040.25C878.105,1032.61 881.154,1027.69 875.894,1024.02" style="fill:none;stroke:black;stroke-width:2.93px;"/>
                <path d="M512.494,934.409C505.379,922.046 513.826,882.639 554.082,871.384C585.494,862.601 772.186,809.743 772.186,809.743C772.186,809.743 822.822,734.712 838.841,734.289C864.844,733.602 931.786,762.2 933.78,782.714C933.877,783.716 847.438,791.114 846.767,792.326C833.949,815.483 843.259,840.879 855.404,857.957C856.313,859.235 929.14,848.992 929.235,850.104C930.873,869.277 871.502,904.533 855.434,904.574C841.157,904.61 783.33,868.937 783.33,868.937C783.33,868.937 604.677,957.92 576.653,965.274C545.115,973.55 524.93,956.017 512.494,934.409Z" style="fill:rgb(159,159,159);stroke:black;stroke-width:2.93px;"/>
                <path d="M723.262,851.337C751.281,838.176 750.487,817.042 745.37,794.644C738.228,763.383 711.945,739.538 684.809,742.666C657.611,745.801 611.89,764.909 610.809,800.174C610.047,825.016 627.575,850.209 627.575,850.209C627.575,850.209 645.864,843.627 657.693,847.121C669.521,850.615 695.242,864.498 723.262,851.337Z" style="fill:rgb(202,247,223);stroke:black;stroke-width:2.93px;"/>
                <g transform="matrix(0.713621,0.561618,-0.802385,1.01955,844.759,-379.08)">
                    <ellipse cx="660.149" cy="813.725" rx="16.216" ry="7.527"/>
                </g>
                <g transform="matrix(0.275484,0.81069,-1.04833,0.356237,1397.61,-30.8723)">
                    <ellipse cx="660.149" cy="813.725" rx="16.216" ry="7.527"/>
                </g>
            </g>
        </g>
    </g>
</svg>
